<svg id="Layer_1" data-name="Layer 1" xmlns="http://www.w3.org/2000/svg" viewBox="0 0 1038 299"><defs><style>.cls-1{fill:none;stroke:#2483c5;stroke-miterlimit:10;stroke-width:0;}.cls-2{fill:#2483c5;}</style></defs><rect class="cls-1" x="-0.58" y="0.58" width="1037.97" height="298.83"/><rect class="cls-2" x="60.18" y="244" width="72.13" height="5"/><polygon class="cls-2" points="60.18 235.77 60.18 228.01 131.73 228.01 132.03 235.77 60.18 235.77"/><polygon class="cls-2" points="60.18 219.66 60.18 209 131.24 209 131.46 219.66 60.18 219.66"/><polygon class="cls-2" points="60.18 200.63 60.18 185.17 130.51 185.17 130.85 200.63 60.18 200.63"/><polygon class="cls-2" points="60.18 177.06 60.18 153.15 265.01 153.15 266.5 177.06 142.56 177.06 128.43 153.16 130.15 177.06 60.18 177.06"/><polygon class="cls-2" points="60.18 144.89 60.18 115.3 182.5 115.3 200.62 144.89 198.92 115.3 266.5 115.3 266.5 144.89 60.18 144.89"/><polygon class="cls-2" points="60.18 107 60.18 49.27 142.91 49.51 177.17 107 60.18 107"/><rect class="cls-2" x="198.92" y="49.27" width="67.59" height="57.73"/><polygon class="cls-2" points="266.51 185.17 266.51 200.63 158.37 200.63 148.11 185.17 266.51 185.17"/><polygon class="cls-2" points="266.51 209 266.51 219.66 170.72 219.66 163.71 209 266.51 209"/><polygon class="cls-2" points="266.51 228.01 266.51 235.77 181.33 235.77 176.24 228.01 266.51 228.01"/><polygon class="cls-2" points="266.51 244 266.51 249 190.12 249 186.8 244 266.51 244"/><rect class="cls-2" x="285.78" y="244" width="70.58" height="5"/><rect class="cls-2" x="285.78" y="228.01" width="70.58" height="7.75"/><rect class="cls-2" x="285.78" y="209" width="70.58" height="10.66"/><rect class="cls-2" x="285.78" y="185.17" width="70.58" height="15.44"/><rect class="cls-2" x="285.78" y="153.15" width="70.58" height="23.91"/><rect class="cls-2" x="285.78" y="115.3" width="70.58" height="29.59"/><rect class="cls-2" x="285.78" y="49.27" width="70.58" height="57.73"/><path class="cls-2" d="M477.7,45.86h37.46V107H378.77c16.89-35.89,54.89-61.14,98.93-61.14"/><path class="cls-2" d="M454.6,115.3a39.44,39.44,0,0,0-14.07,29.59H369.42a102,102,0,0,1,5.91-29.59Z"/><path class="cls-2" d="M441.16,153.15a39.87,39.87,0,0,0,14,23.91H373.62a96.62,96.62,0,0,1-4-23.91Z"/><path class="cls-2" d="M515.16,185.17v15.46h-131a97.47,97.47,0,0,1-7.74-15.46Z"/><path class="cls-2" d="M515.16,209v10.66h-116A100.56,100.56,0,0,1,389.87,209Z"/><path class="cls-2" d="M515.16,228v7.76H419.62A128.34,128.34,0,0,1,408.48,228Z"/><path class="cls-2" d="M515.16,244v4.3h-63.9s-2.13.73-14.81-4.3Z"/><polygon class="cls-2" points="552.13 49.96 564.82 49.96 587.83 90 587.83 49.96 599.11 49.96 599.11 107.38 587 107.38 563.41 66.64 563.41 107.38 552.13 107.38 552.13 49.96"/><path class="cls-2" d="M625.73,81.55a18.06,18.06,0,0,0,4.47-1,3.34,3.34,0,0,0,2.42-3.16,3.73,3.73,0,0,0-1.85-3.6,11.73,11.73,0,0,0-5.45-1q-4,0-5.69,2a8,8,0,0,0-1.59,3.9H607.22a16.28,16.28,0,0,1,3.17-9.16q4.46-5.61,15.32-5.6a27.59,27.59,0,0,1,12.55,2.76c3.66,1.85,5.48,5.32,5.48,10.44V96.59c0,1.35,0,3,.09,4.91a6,6,0,0,0,.67,3,4,4,0,0,0,1.65,1.28v1.64H634a12.43,12.43,0,0,1-.71-2.42c-.12-.75-.23-1.61-.31-2.57a23.47,23.47,0,0,1-5.37,4.25,16.39,16.39,0,0,1-8.24,2.06,14.27,14.27,0,0,1-9.66-3.29q-3.82-3.3-3.82-9.33c0-5.21,2-9,6.14-11.33,2.25-1.28,5.54-2.19,9.9-2.73Zm6.85,5.18a11.49,11.49,0,0,1-2.17,1.07,17.3,17.3,0,0,1-3,.76l-2.55.47a16.91,16.91,0,0,0-5.15,1.52,5,5,0,0,0-2.64,4.71,4.86,4.86,0,0,0,1.62,4.11,6.13,6.13,0,0,0,3.92,1.27,11.72,11.72,0,0,0,6.76-2.1q3.1-2.12,3.22-7.67Z"/><path class="cls-2" d="M648.33,73.21v-7.9h6V53.46H665.4V65.31h7v7.9h-7V95.65c0,1.74.21,2.83.67,3.25s1.81.65,4.08.65c.34,0,.7,0,1.09,0s.75,0,1.11-.06v8.3L667,108q-7.93.27-10.85-2.72c-1.26-1.28-1.88-3.24-1.88-5.89V73.21Z"/><path class="cls-2" d="M691.65,59.85H680.28V49.61h11.37Zm-11.37,5.07h11.37v42.46H680.28Z"/><path class="cls-2" d="M736.05,102.19q-5.43,6.61-16.47,6.62t-16.48-6.62a24.44,24.44,0,0,1-5.42-16,24.54,24.54,0,0,1,5.42-15.91q5.42-6.74,16.48-6.73t16.47,6.73a24.6,24.6,0,0,1,5.42,15.91,24.49,24.49,0,0,1-5.42,16m-9-6.14q2.61-3.47,2.62-9.85t-2.62-9.82a10,10,0,0,0-15.13,0q-2.64,3.45-2.65,9.82T712,96.05a10,10,0,0,0,15.13,0"/><path class="cls-2" d="M783.24,67.35q4.21,3.45,4.21,11.43v28.6H776V81.55a11.91,11.91,0,0,0-.88-5.14c-1.1-2.18-3.18-3.27-6.26-3.27q-5.66,0-7.76,4.78A16.66,16.66,0,0,0,760,84.39v23H748.76V65h10.86v6.19a18.6,18.6,0,0,1,4.07-4.72,14.19,14.19,0,0,1,8.73-2.56,16.51,16.51,0,0,1,10.82,3.44"/><path class="cls-2" d="M814,81.55a18.29,18.29,0,0,0,4.47-1,3.33,3.33,0,0,0,2.41-3.16,3.72,3.72,0,0,0-1.84-3.6,11.73,11.73,0,0,0-5.45-1q-4,0-5.69,2a8,8,0,0,0-1.59,3.9H795.53a16.2,16.2,0,0,1,3.16-9.16c3-3.74,8.08-5.6,15.32-5.6a27.5,27.5,0,0,1,12.55,2.76c3.66,1.85,5.5,5.32,5.5,10.44V96.59c0,1.35,0,3,.07,4.91a6.15,6.15,0,0,0,.67,3,4.14,4.14,0,0,0,1.65,1.28v1.64H822.27a11.77,11.77,0,0,1-.71-2.42c-.13-.75-.24-1.61-.32-2.57a23.25,23.25,0,0,1-5.37,4.25,16.32,16.32,0,0,1-8.22,2.06,14.3,14.3,0,0,1-9.68-3.29q-3.81-3.3-3.81-9.33c0-5.21,2-9,6.13-11.33,2.25-1.28,5.54-2.19,9.9-2.73Zm6.84,5.18a11.2,11.2,0,0,1-2.17,1.07,17.15,17.15,0,0,1-3,.76l-2.55.47A16.91,16.91,0,0,0,808,90.55a5,5,0,0,0-2.64,4.71A4.88,4.88,0,0,0,807,99.37a6.14,6.14,0,0,0,3.93,1.27,11.8,11.8,0,0,0,6.77-2.1q3.09-2.12,3.2-7.67Z"/><rect class="cls-2" x="841.27" y="49.96" width="11.21" height="57.42"/><rect class="cls-2" x="551.35" y="117.31" width="12.03" height="57.41"/><path class="cls-2" d="M607.54,134.7c2.81,2.3,4.21,6.1,4.21,11.43v28.59H600.27V148.91a11.74,11.74,0,0,0-.9-5.15q-1.65-3.27-6.24-3.27c-3.78,0-6.36,1.6-7.77,4.79a16.38,16.38,0,0,0-1.1,6.46v23h-11.2V132.35h10.85v6.19a19,19,0,0,1,4.08-4.72,14.18,14.18,0,0,1,8.72-2.56q6.63,0,10.83,3.44"/><path class="cls-2" d="M639.09,116.79c.58,0,1.36.1,2.36.17v9c-.63-.08-1.68-.14-3.16-.18a3.66,3.66,0,0,0-3.07,1,3.54,3.54,0,0,0-.84,2.28v3.57h7.35v7.84h-7.35v34.23H623.26V140.49H617v-7.84h6.13v-2.71q0-6.82,2.32-9.4c1.62-2.54,5.55-3.81,11.76-3.81.7,0,1.35,0,1.92.06"/><path class="cls-2" d="M683.11,169.53q-5.43,6.65-16.48,6.64t-16.47-6.64a26.13,26.13,0,0,1,0-31.89q5.43-6.73,16.47-6.73t16.48,6.73a26.16,26.16,0,0,1,0,31.89m-9-6.14q2.63-3.45,2.63-9.83t-2.63-9.83a10,10,0,0,0-15.13,0q-2.65,3.45-2.65,9.83t2.65,9.83a10,10,0,0,0,15.13,0"/><path class="cls-2" d="M719.55,131.27l1,.07v11.37c-.71-.08-1.34-.14-1.89-.16l-1.33,0c-4.52,0-7.54,1.46-9.09,4.36-.87,1.65-1.29,4.16-1.29,7.57v20.28H695.63V132.26h10.7v7.42a23.53,23.53,0,0,1,4.51-5.81,12.36,12.36,0,0,1,8.19-2.61h.52"/><path class="cls-2" d="M779.75,132.43a12.49,12.49,0,0,1,5,3.81,12.21,12.21,0,0,1,2.43,5.46,36.55,36.55,0,0,1,.39,6.26l-.07,26.76H776v-27a8.74,8.74,0,0,0-.79-4c-1-2-2.83-2.95-5.51-2.95-3.09,0-5.22,1.26-6.4,3.81a11.76,11.76,0,0,0-.91,4.87v25.27H751.12V149.45a14,14,0,0,0-.79-5.5c-.94-2-2.78-3.07-5.54-3.07q-4.8,0-6.44,3.07a11.71,11.71,0,0,0-.9,5.22v25.55H726.08V132.35H737v6.19a18.25,18.25,0,0,1,3.94-4.72,15.76,15.76,0,0,1,16.4-.35,12.53,12.53,0,0,1,3.69,5.11,14.23,14.23,0,0,1,5.47-5.5,16.86,16.86,0,0,1,7.7-1.74,15.06,15.06,0,0,1,5.59,1.09"/><path class="cls-2" d="M814,148.91a18.19,18.19,0,0,0,4.47-1,3.33,3.33,0,0,0,2.41-3.16,3.72,3.72,0,0,0-1.84-3.6,12,12,0,0,0-5.45-1c-2.68,0-4.58.64-5.69,1.94a7.91,7.91,0,0,0-1.59,3.9H795.53a16.14,16.14,0,0,1,3.16-9.15c3-3.75,8.08-5.61,15.32-5.61A27.5,27.5,0,0,1,826.56,134c3.66,1.84,5.5,5.33,5.5,10.44v19.48c0,1.35,0,3,.07,4.9a6.1,6.1,0,0,0,.67,3,4.16,4.16,0,0,0,1.65,1.29v1.62H822.27a11.35,11.35,0,0,1-.71-2.41c-.13-.75-.24-1.61-.32-2.57a23,23,0,0,1-5.37,4.24,16.32,16.32,0,0,1-8.22,2.07,14.3,14.3,0,0,1-9.68-3.28c-2.54-2.21-3.81-5.31-3.81-9.34,0-5.22,2-9,6.13-11.34,2.25-1.27,5.54-2.17,9.9-2.72Zm6.84,5.17a11.86,11.86,0,0,1-2.17,1.08,20.36,20.36,0,0,1-3,.76l-2.55.46a16.86,16.86,0,0,0-5.15,1.53,5,5,0,0,0-2.64,4.71,4.88,4.88,0,0,0,1.61,4.1,6.14,6.14,0,0,0,3.93,1.27,11.74,11.74,0,0,0,6.77-2.11c2.06-1.4,3.13-3.95,3.2-7.67Z"/><path class="cls-2" d="M836.64,140.57v-7.92h6V120.81H853.7v11.84h6.95v7.92H853.7V163c0,1.74.22,2.82.66,3.25s1.81.65,4.09.65l1.08,0c.38,0,.76,0,1.12-.06v8.3l-5.3.19c-5.31.19-8.91-.73-10.85-2.72-1.26-1.27-1.89-3.24-1.89-5.89V140.57Z"/><path class="cls-2" d="M880,127.21H868.59V117H880Zm-11.36,5H880v42.46H868.59Z"/><path class="cls-2" d="M914.24,147.5a9.54,9.54,0,0,0-1.62-4.29c-1.26-1.72-3.21-2.57-5.87-2.57q-5.67,0-7.76,5.57a22.84,22.84,0,0,0-1.1,7.84,21.11,21.11,0,0,0,1.1,7.52,7.48,7.48,0,0,0,7.57,5.29c2.62,0,4.49-.71,5.59-2.1a10.31,10.31,0,0,0,2-5.45H925.6a18.46,18.46,0,0,1-3.7,9.58c-3.51,4.85-8.73,7.28-15.62,7.28s-12-2-15.22-6.08-4.89-9.3-4.89-15.75c0-7.29,1.81-13,5.39-17s8.56-6.08,14.88-6.08q8.07,0,13.21,3.58t6.07,12.66Z"/><path class="cls-2" d="M941.27,161.17a7.36,7.36,0,0,0,1.55,4.21q2.08,2.22,7.74,2.22a12.06,12.06,0,0,0,5.27-1,3.26,3.26,0,0,0,.38-5.77q-1.56-1-11.72-3.35-7.31-1.8-10.3-4.47c-2-1.78-3-4.32-3-7.65a13.14,13.14,0,0,1,4.67-10.1c3.1-2.82,7.49-4.23,13.14-4.23,5.35,0,9.73,1.06,13.09,3.17s5.32,5.78,5.81,11h-11.2a6.42,6.42,0,0,0-1.22-3.38c-1.23-1.51-3.34-2.26-6.31-2.26q-3.66,0-5.21,1.13a3.23,3.23,0,0,0-1.56,2.65,2.88,2.88,0,0,0,1.65,2.76q1.66.9,11.7,3.08,6.69,1.56,10,4.72a10.65,10.65,0,0,1,3.3,8,12.88,12.88,0,0,1-4.75,10.31q-4.74,4-14.68,4-10.11,0-14.94-4.23a13.67,13.67,0,0,1-4.82-10.77Z"/><path class="cls-2" d="M557.86,193.11q7-7.08,17.81-7.09,14.48,0,21.16,9.51a20.6,20.6,0,0,1,4,10.71H588.7a16.51,16.51,0,0,0-3-6.23c-2.16-2.49-5.36-3.75-9.6-3.75a11.84,11.84,0,0,0-10.2,5.28q-3.73,5.28-3.74,15T566.14,231a12.39,12.39,0,0,0,10,4.82c4.16,0,7.32-1.39,9.5-4.13a18.2,18.2,0,0,0,3-6.66h12a25.79,25.79,0,0,1-7.95,15.26q-6.4,5.89-16.4,5.89-12.36,0-19.44-7.95t-7.08-21.9q0-15,8.05-23.17"/><path class="cls-2" d="M636.69,202.93a17.47,17.47,0,0,1,7.4,6.28A20.8,20.8,0,0,1,647.5,218a53.32,53.32,0,0,1,.37,8.43H616.66q.27,6.38,4.48,9a11.53,11.53,0,0,0,6.18,1.59,9.5,9.5,0,0,0,6.22-1.94,9.36,9.36,0,0,0,2.31-2.93h11.44c-.3,2.52-1.69,5.08-4.15,7.68Q637.38,246,627,246a23.59,23.59,0,0,1-15.11-5.22q-6.52-5.24-6.53-17,0-11,5.89-16.92t15.33-5.89a24.75,24.75,0,0,1,10.09,2m-16.76,9.59a11.42,11.42,0,0,0-3,6.57h19.31a9.26,9.26,0,0,0-3-6.7,9.84,9.84,0,0,0-6.65-2.3,8.89,8.89,0,0,0-6.68,2.43"/><path class="cls-2" d="M687.29,204.5c2.81,2.31,4.21,6.11,4.21,11.44v28.59H680V218.7a11.92,11.92,0,0,0-.89-5.14q-1.65-3.28-6.25-3.28-5.65,0-7.77,4.8a16.41,16.41,0,0,0-1.09,6.47v23H652.81V202.14h10.85v6.2a18.93,18.93,0,0,1,4.08-4.71,14.13,14.13,0,0,1,8.73-2.57,16.55,16.55,0,0,1,10.82,3.44"/><path class="cls-2" d="M696.7,210.37v-7.91h6V190.62h11.09v11.84h7v7.91h-7V232.8c0,1.74.22,2.83.67,3.25s1.8.65,4.09.65h1.09l1.11-.07v8.3l-5.31.19q-7.95.27-10.85-2.73c-1.25-1.26-1.89-3.23-1.89-5.87V210.37Z"/><path class="cls-2" d="M750.92,201.08l1,0v11.38c-.71-.08-1.34-.13-1.89-.16s-1,0-1.33,0c-4.51,0-7.54,1.47-9.09,4.37q-1.29,2.44-1.29,7.56v20.29H727V202.07h10.68v7.4a23.4,23.4,0,0,1,4.53-5.8,12.39,12.39,0,0,1,8.18-2.61l.52,0"/><path class="cls-2" d="M785.58,202.93a17.47,17.47,0,0,1,7.4,6.28A20.68,20.68,0,0,1,796.4,218a56.14,56.14,0,0,1,.36,8.43h-31.2q.26,6.38,4.47,9a11.53,11.53,0,0,0,6.18,1.59,8.69,8.69,0,0,0,8.53-4.87h11.43c-.29,2.52-1.68,5.08-4.14,7.68Q786.27,246,775.9,246a23.56,23.56,0,0,1-15.09-5.22q-6.54-5.24-6.55-17,0-11,5.91-16.92c3.93-3.93,9.05-5.89,15.32-5.89a24.75,24.75,0,0,1,10.09,2m-16.77,9.59a11.54,11.54,0,0,0-3,6.57h19.3a9.25,9.25,0,0,0-3-6.7,9.84,9.84,0,0,0-6.65-2.3,8.93,8.93,0,0,0-6.69,2.43"/></svg>